<?xml version="1.0" encoding="UTF-8" ?>
<svg version="1.1" width="32" height="32" xmlns="http://www.w3.org/2000/svg" shape-rendering="crispEdges">
<rect x="0" y="0" width="32" height="1" fill="#000000" />
<rect x="0" y="1" width="1" height="31" fill="#000000" />
<rect x="1" y="1" width="30" height="4" fill="#FFFFFF" />
<rect x="31" y="1" width="1" height="31" fill="#000000" />
<rect x="1" y="5" width="5" height="9" fill="#FFFFFF" />
<rect x="6" y="5" width="4" height="4" fill="#000000" />
<rect x="10" y="5" width="12" height="9" fill="#FFFFFF" />
<rect x="22" y="5" width="5" height="5" fill="#000000" />
<rect x="27" y="5" width="4" height="10" fill="#FFFFFF" />
<rect x="6" y="9" width="4" height="5" fill="#FFFFFF" />
<rect x="22" y="10" width="5" height="4" fill="#FFFFFF" />
<rect x="1" y="14" width="4" height="17" fill="#FFFFFF" />
<rect x="5" y="14" width="9" height="4" fill="#000000" />
<rect x="14" y="14" width="9" height="1" fill="#FFFFFF" />
<rect x="23" y="14" width="4" height="6" fill="#000000" />
<rect x="14" y="15" width="9" height="5" fill="#000000" />
<rect x="27" y="15" width="1" height="5" fill="#000000" />
<rect x="28" y="15" width="3" height="16" fill="#FFFFFF" />
<rect x="5" y="18" width="4" height="13" fill="#FFFFFF" />
<rect x="9" y="18" width="5" height="2" fill="#000000" />
<rect x="9" y="20" width="19" height="11" fill="#FFFFFF" />
<rect x="1" y="31" width="30" height="1" fill="#000000" />
</svg>